<?xml version="1.0" encoding="utf-8"?>
<!-- Generator: Adobe Illustrator 19.0.0, SVG Export Plug-In . SVG Version: 6.00 Build 0)  -->
<svg version="1.1" id="レイヤー_1" xmlns="http://www.w3.org/2000/svg" xmlns:xlink="http://www.w3.org/1999/xlink" x="0px"
	 y="0px" width="200px" height="119.326px" viewBox="0 0 177.051 119.326" style="enable-background:new 0 0 177.051 119.326;"
	 xml:space="preserve">
<style type="text/css">
	.st0{fill:#701C45;}
</style>
<path class="st0" d="M61.816,118.891c0.218-0.014,0.399-0.034,0.544-0.059c0.145-0.026,0.261-0.076,0.348-0.153
	c0.087-0.076,0.148-0.18,0.184-0.315c0.037-0.134,0.055-0.313,0.055-0.538v-4.238c0-0.261-0.009-0.471-0.028-0.63
	c-0.018-0.159-0.065-0.286-0.141-0.38c-0.076-0.095-0.189-0.167-0.337-0.218c-0.148-0.05-0.349-0.09-0.603-0.119v-0.261h3.749v0.261
	c-0.268,0.029-0.481,0.069-0.641,0.119c-0.159,0.051-0.279,0.123-0.358,0.218c-0.08,0.094-0.131,0.221-0.153,0.38
	c-0.021,0.159-0.032,0.369-0.032,0.63v1.435h3.608v-1.435c0-0.261-0.011-0.471-0.033-0.63s-0.07-0.286-0.147-0.38
	c-0.076-0.095-0.192-0.167-0.347-0.218c-0.156-0.05-0.372-0.09-0.647-0.119v-0.261h3.782v0.261c-0.268,0.029-0.478,0.069-0.63,0.119
	c-0.153,0.051-0.267,0.123-0.343,0.218c-0.076,0.094-0.125,0.221-0.146,0.38c-0.022,0.159-0.033,0.369-0.033,0.63v4.238
	c0,0.225,0.018,0.404,0.054,0.538c0.037,0.135,0.098,0.239,0.185,0.315c0.087,0.077,0.205,0.127,0.353,0.153
	c0.149,0.025,0.335,0.045,0.56,0.059v0.261H66.87v-0.261c0.217-0.014,0.398-0.034,0.543-0.059c0.145-0.026,0.262-0.076,0.353-0.153
	c0.091-0.076,0.154-0.18,0.19-0.315c0.037-0.134,0.055-0.313,0.055-0.538v-2.347h-3.608v2.347c0,0.225,0.018,0.404,0.054,0.538
	c0.036,0.135,0.1,0.239,0.19,0.315c0.091,0.077,0.21,0.127,0.359,0.153c0.149,0.025,0.331,0.045,0.549,0.059v0.261h-3.739V118.891z
	 M74.624,118.891c0.203-0.021,0.372-0.063,0.506-0.125c0.134-0.061,0.246-0.143,0.337-0.244c0.09-0.102,0.17-0.219,0.239-0.353
	s0.139-0.288,0.212-0.462l2.13-4.966l-0.196-0.522l1.337-0.391l2.358,6.4c0.087,0.233,0.239,0.401,0.456,0.506
	c0.218,0.105,0.439,0.157,0.663,0.157v0.261h-3.782v-0.261c0.377-0.029,0.656-0.09,0.837-0.184s0.272-0.236,0.272-0.424
	c0-0.065-0.013-0.149-0.038-0.25c-0.026-0.102-0.058-0.205-0.098-0.31c-0.04-0.105-0.08-0.21-0.12-0.315
	c-0.039-0.105-0.074-0.194-0.103-0.266l-0.369-1.076h-2.163l-0.554,1.532c-0.036,0.102-0.074,0.2-0.114,0.294
	c-0.04,0.094-0.06,0.213-0.06,0.358c0,0.087,0.031,0.167,0.092,0.239c0.062,0.073,0.142,0.136,0.239,0.19
	c0.098,0.055,0.203,0.1,0.316,0.136c0.112,0.037,0.215,0.062,0.309,0.076v0.261h-2.706V118.891z M79.113,115.653l-0.892-2.543H78.2
	l-0.946,2.543H79.113z M86.608,118.891c0.34-0.05,0.608-0.105,0.804-0.163c0.196-0.057,0.344-0.146,0.445-0.266
	c0.102-0.119,0.167-0.277,0.196-0.473c0.029-0.195,0.044-0.456,0.044-0.782l0.043-4.227c-0.094-0.109-0.201-0.203-0.321-0.283
	c-0.119-0.08-0.244-0.147-0.374-0.201c-0.131-0.054-0.265-0.101-0.403-0.141c-0.137-0.04-0.275-0.078-0.413-0.114v-0.261h2.619
	c0,0,1.458,1.775,2.201,2.63c0.743,0.855,1.458,1.742,2.146,2.662h0.022v-0.88c0-0.355-0.005-0.723-0.016-1.103
	s-0.027-0.749-0.049-1.108c-0.022-0.359-0.054-0.661-0.098-0.908c-0.029-0.188-0.078-0.342-0.147-0.462
	c-0.069-0.119-0.157-0.217-0.266-0.293c-0.109-0.076-0.234-0.134-0.375-0.174c-0.141-0.04-0.299-0.074-0.473-0.103v-0.261h3.043
	v0.261c-0.282,0.015-0.507,0.054-0.673,0.119c-0.167,0.066-0.292,0.174-0.375,0.326c-0.084,0.152-0.138,0.357-0.163,0.614
	c-0.026,0.258-0.038,0.585-0.038,0.984v4.988h-0.642c-0.217-0.334-0.463-0.689-0.739-1.065c-0.275-0.377-0.563-0.756-0.864-1.136
	c-0.3-0.38-0.604-0.755-0.912-1.125c-0.309-0.369-0.603-0.717-0.886-1.043c-0.283-0.326-0.543-0.625-0.782-0.896
	c-0.24-0.272-0.442-0.495-0.609-0.669v3.684c0,0.37,0.014,0.665,0.043,0.886c0.029,0.221,0.093,0.397,0.191,0.527
	c0.097,0.13,0.241,0.226,0.429,0.288c0.188,0.062,0.442,0.118,0.761,0.168v0.261h-3.369V118.891z M103.189,111.828
	c0.615,0,1.179,0.085,1.69,0.255c0.51,0.171,0.951,0.415,1.32,0.734c0.369,0.318,0.655,0.711,0.859,1.179
	c0.202,0.467,0.304,0.994,0.304,1.581s-0.102,1.114-0.304,1.581c-0.204,0.467-0.49,0.86-0.859,1.179
	c-0.369,0.319-0.81,0.563-1.32,0.734c-0.511,0.17-1.075,0.255-1.69,0.255c-0.616,0-1.179-0.085-1.69-0.255
	c-0.511-0.171-0.951-0.415-1.32-0.734c-0.37-0.319-0.656-0.712-0.859-1.179c-0.203-0.467-0.304-0.994-0.304-1.581
	s0.101-1.114,0.304-1.581c0.203-0.468,0.489-0.861,0.859-1.179c0.369-0.319,0.809-0.563,1.32-0.734
	C102.01,111.913,102.573,111.828,103.189,111.828 M103.189,112.219c-0.45,0-0.839,0.091-1.168,0.272
	c-0.33,0.181-0.602,0.427-0.815,0.739c-0.214,0.311-0.372,0.668-0.473,1.07c-0.102,0.402-0.152,0.828-0.152,1.277
	c0,0.442,0.05,0.866,0.152,1.271c0.101,0.407,0.259,0.765,0.473,1.076c0.213,0.312,0.485,0.558,0.815,0.739
	c0.329,0.181,0.718,0.272,1.168,0.272c0.449,0,0.838-0.091,1.168-0.272s0.601-0.427,0.815-0.739
	c0.214-0.311,0.371-0.669,0.472-1.076c0.102-0.405,0.153-0.829,0.153-1.271c0-0.449-0.051-0.875-0.153-1.277
	c-0.101-0.402-0.258-0.759-0.472-1.07c-0.214-0.312-0.485-0.558-0.815-0.739S103.638,112.219,103.189,112.219 M111.376,111.98h3.858
	v0.261c-0.247,0.007-0.451,0.035-0.614,0.081c-0.163,0.048-0.29,0.116-0.381,0.207c-0.09,0.09-0.154,0.21-0.19,0.358
	c-0.036,0.149-0.054,0.332-0.054,0.549v4.608c0,0.282,0.09,0.489,0.272,0.619c0.181,0.131,0.492,0.207,0.934,0.228l-0.022,0.261
	h-3.847v-0.261c0.442-0.021,0.754-0.097,0.935-0.228c0.181-0.13,0.272-0.337,0.272-0.619v-4.608c0-0.427-0.082-0.729-0.245-0.907
	c-0.163-0.178-0.469-0.273-0.918-0.288V111.98z M112.256,110.002c0.196,0,0.361,0.067,0.495,0.201s0.201,0.299,0.201,0.494
	c0,0.196-0.067,0.361-0.201,0.495c-0.134,0.134-0.299,0.201-0.495,0.201c-0.195,0-0.36-0.067-0.494-0.201
	c-0.134-0.134-0.201-0.299-0.201-0.495c0-0.195,0.067-0.36,0.201-0.494S112.061,110.002,112.256,110.002 M114.397,110.002
	c0.196,0,0.36,0.067,0.494,0.201s0.201,0.299,0.201,0.494c0,0.196-0.067,0.361-0.201,0.495c-0.134,0.134-0.298,0.201-0.494,0.201
	c-0.196,0-0.36-0.067-0.494-0.201c-0.134-0.134-0.202-0.299-0.202-0.495c0-0.195,0.068-0.36,0.202-0.494
	S114.201,110.002,114.397,110.002"/>
<path class="st0" d="M7.221,96.109v-0.361c-0.399-0.028-0.741-0.066-1.018-0.113c-0.306-0.052-0.556-0.159-0.745-0.318
	c-0.191-0.16-0.325-0.382-0.4-0.661c-0.073-0.27-0.11-0.633-0.11-1.082v-4.71h7.276v4.71c0,0.448-0.038,0.812-0.11,1.082
	c-0.076,0.279-0.211,0.502-0.401,0.661c-0.189,0.159-0.435,0.266-0.733,0.318c-0.272,0.047-0.611,0.085-1.008,0.113v0.361h7.243
	v-0.36c-0.413-0.029-0.762-0.067-1.04-0.114c-0.306-0.052-0.553-0.16-0.735-0.318c-0.183-0.161-0.314-0.383-0.389-0.661
	c-0.073-0.269-0.11-0.632-0.11-1.082V85.21c0-0.515,0.022-0.937,0.065-1.254c0.045-0.328,0.148-0.593,0.307-0.789
	c0.159-0.197,0.398-0.35,0.711-0.454c0.291-0.097,0.691-0.175,1.191-0.232V82.12H9.907v0.361c0.514,0.057,0.925,0.135,1.223,0.232
	c0.32,0.104,0.563,0.257,0.722,0.454c0.159,0.196,0.262,0.461,0.307,0.789c0.043,0.315,0.065,0.737,0.065,1.254v2.909H4.948V85.21
	c0-0.516,0.021-0.938,0.065-1.254c0.045-0.329,0.151-0.594,0.318-0.791c0.166-0.196,0.416-0.348,0.743-0.453
	c0.304-0.096,0.711-0.174,1.211-0.231V82.12H0.042v0.361c0.472,0.058,0.854,0.135,1.138,0.232c0.305,0.105,0.541,0.257,0.7,0.454
	c0.159,0.196,0.258,0.462,0.296,0.791c0.036,0.319,0.054,0.74,0.054,1.252v8.364c0,0.448-0.037,0.812-0.11,1.082
	c-0.076,0.279-0.206,0.501-0.389,0.661c-0.182,0.158-0.425,0.265-0.724,0.318C0.736,95.682,0.397,95.72,0,95.748v0.361H7.221z
	 M26.776,81.814c-1.201,0-2.315,0.168-3.31,0.5c-0.994,0.331-1.862,0.813-2.58,1.433c-0.717,0.619-1.28,1.392-1.673,2.298
	c-0.394,0.908-0.595,1.948-0.595,3.09s0.201,2.181,0.595,3.089c0.393,0.907,0.956,1.68,1.673,2.299
	c0.718,0.62,1.586,1.101,2.58,1.433c0.996,0.331,2.109,0.5,3.31,0.5c1.2,0,2.314-0.169,3.31-0.5
	c0.994-0.332,1.862-0.813,2.579-1.433c0.717-0.618,1.28-1.392,1.674-2.299c0.394-0.908,0.594-1.948,0.594-3.089
	c0-1.142-0.2-2.181-0.594-3.09c-0.394-0.907-0.957-1.68-1.673-2.298c-0.718-0.62-1.586-1.102-2.58-1.433
	C29.09,81.982,27.977,81.814,26.776,81.814 M26.776,95.839c-0.896,0-1.684-0.183-2.343-0.545c-0.659-0.361-1.209-0.86-1.635-1.483
	c-0.425-0.619-0.743-1.342-0.944-2.148c-0.201-0.802-0.303-1.653-0.303-2.528c0-0.889,0.102-1.744,0.303-2.539
	c0.201-0.799,0.519-1.518,0.944-2.138c0.426-0.622,0.976-1.12,1.635-1.483c0.659-0.361,1.447-0.545,2.343-0.545
	c0.895,0,1.683,0.184,2.343,0.545c0.658,0.362,1.208,0.861,1.635,1.483c0.425,0.62,0.743,1.339,0.944,2.138
	c0.201,0.796,0.303,1.65,0.303,2.539c0,0.874-0.102,1.725-0.303,2.528c-0.201,0.806-0.519,1.529-0.944,2.148
	c-0.427,0.623-0.977,1.122-1.635,1.483C28.46,95.656,27.671,95.839,26.776,95.839 M29.21,81.014h1.002l-2.693-3.239h-1.314
	l-2.652,3.239h0.981l2.327-1.844L29.21,81.014z M40.087,95.748v0.361h7.436v-0.361c-0.513-0.043-0.926-0.106-1.23-0.189
	c-0.329-0.09-0.58-0.235-0.746-0.432c-0.167-0.197-0.274-0.459-0.318-0.78c-0.043-0.308-0.065-0.712-0.065-1.201V82.902h0.078
	c0.643,0,1.224,0.036,1.726,0.108c0.51,0.073,0.967,0.235,1.361,0.483c0.394,0.249,0.731,0.615,1.002,1.089
	c0.26,0.458,0.471,1.083,0.628,1.858h0.322l-0.206-4.324H37.449l-0.206,4.324h0.407c0.157-0.776,0.369-1.401,0.629-1.858
	c0.269-0.474,0.607-0.84,1.002-1.089c0.393-0.248,0.85-0.41,1.36-0.483c0.502-0.072,1.083-0.108,1.727-0.108h0.078v10.244
	c0,0.487-0.022,0.891-0.065,1.201c-0.045,0.321-0.152,0.583-0.318,0.78c-0.167,0.197-0.418,0.342-0.747,0.432
	C41.013,95.642,40.599,95.705,40.087,95.748 M65.155,96.111l1.826-4.507l-0.285-0.21c-0.782,1.368-1.743,2.395-2.859,3.052
	c-1.137,0.669-2.427,1.008-3.835,1.008c-0.519,0-0.994-0.026-1.414-0.076c-0.425-0.051-0.815-0.127-1.16-0.228l-0.057-0.016v-6.506
	h1.194c0.433,0,0.84,0.048,1.209,0.141c0.373,0.096,0.71,0.256,1.003,0.475c0.293,0.22,0.552,0.516,0.771,0.88
	c0.209,0.348,0.374,0.783,0.489,1.292h0.286V85.46h-0.286c-0.117,0.481-0.289,0.895-0.512,1.23
	c-0.234,0.351-0.512,0.636-0.826,0.847c-0.313,0.212-0.657,0.367-1.021,0.461c-0.361,0.095-0.735,0.143-1.113,0.143h-1.194v-5.368
	h2.48c1.44,0,2.556,0.283,3.317,0.841c0.746,0.547,1.3,1.364,1.648,2.43l0.324-0.06l-0.138-3.868l-12.579,0.001v0.445
	c0.458,0.018,0.834,0.08,1.118,0.184c0.305,0.111,0.544,0.275,0.71,0.486c0.165,0.21,0.274,0.474,0.327,0.786
	c0.05,0.303,0.076,0.661,0.076,1.063v8.15c0,0.431-0.026,0.804-0.076,1.107c-0.053,0.312-0.163,0.573-0.328,0.776
	c-0.166,0.204-0.406,0.356-0.712,0.454c-0.283,0.09-0.658,0.151-1.115,0.181v0.359L65.155,96.111z M80.258,96.111l1.648-4.493
	l-0.394-0.173c-0.349,0.661-0.715,1.245-1.089,1.737c-0.389,0.511-0.835,0.943-1.325,1.282c-0.493,0.34-1.049,0.593-1.655,0.751
	c-0.603,0.159-1.317,0.239-2.121,0.239c-0.412,0-0.804-0.011-1.163-0.033c-0.362-0.022-0.649-0.062-0.854-0.12l-0.056-0.017V84.631
	c0-0.414,0.088-0.753,0.26-1.009c0.17-0.251,0.391-0.458,0.658-0.613c0.262-0.153,0.565-0.271,0.9-0.351
	c0.31-0.075,0.622-0.133,0.927-0.175V82.12h-7.693v0.362c0.317,0.043,0.608,0.102,0.866,0.176c0.281,0.082,0.524,0.202,0.723,0.357
	c0.202,0.157,0.362,0.366,0.474,0.62c0.111,0.252,0.168,0.587,0.168,0.996v9.522c0,0.357-0.07,0.645-0.206,0.857
	c-0.135,0.211-0.319,0.376-0.546,0.489c-0.222,0.111-0.476,0.182-0.755,0.211c-0.247,0.027-0.505,0.041-0.767,0.043v0.357
	L80.258,96.111z M93.778,87.819c-0.632,0-1.252,0.096-1.841,0.286c-0.589,0.189-1.119,0.469-1.573,0.833
	c-0.454,0.364-0.827,0.817-1.106,1.348c-0.278,0.53-0.42,1.138-0.42,1.808c0,0.618,0.096,1.197,0.285,1.722
	c0.188,0.523,0.464,0.979,0.82,1.356c0.356,0.376,0.787,0.673,1.282,0.882c0.495,0.21,1.058,0.316,1.674,0.316
	c0.602,0,1.145-0.092,1.612-0.274c0.472-0.182,0.962-0.425,1.458-0.723l0.118-0.071v1.047l4.069-0.323v-0.273
	c-0.399-0.004-0.719-0.041-0.952-0.11c-0.258-0.076-0.452-0.193-0.576-0.348c-0.122-0.154-0.2-0.351-0.23-0.587
	c-0.029-0.222-0.044-0.49-0.044-0.794V80.936l-4.004,0.446v0.276c0.58,0.008,0.984,0.097,1.232,0.271
	c0.264,0.187,0.398,0.482,0.398,0.879v5.757l-0.118-0.071c-0.349-0.209-0.743-0.377-1.171-0.496
	C94.263,87.879,93.956,87.819,93.778,87.819 M93.843,95.325c-0.445,0-0.818-0.114-1.109-0.338c-0.288-0.221-0.519-0.5-0.687-0.831
	c-0.167-0.327-0.285-0.695-0.351-1.095c-0.064-0.395-0.097-0.771-0.097-1.117c0-0.388,0.033-0.786,0.097-1.181
	c0.066-0.401,0.191-0.766,0.374-1.087c0.184-0.325,0.438-0.593,0.755-0.8c0.319-0.207,0.733-0.313,1.232-0.313
	c0.563,0,0.99,0.149,1.269,0.443c0.268,0.283,0.521,0.661,0.753,1.123l0.008,0.035l-0.004,3.671
	c-0.148,0.428-0.409,0.787-0.777,1.067C94.936,95.182,94.444,95.325,93.843,95.325 M100.641,88.436
	c0.939,0.02,1.415,0.406,1.415,1.149v4.032c0,0.918,0.23,1.613,0.685,2.068c0.454,0.455,1.063,0.685,1.81,0.685
	c0.614,0,1.188-0.128,1.703-0.378c0.524-0.255,1.018-0.549,1.468-0.873l0.124-0.089v1.319l3.919-0.319v-0.277
	c-0.524-0.008-0.9-0.096-1.147-0.271c-0.263-0.186-0.397-0.482-0.397-0.879v-6.764l-3.919,0.32v0.276
	c0.524,0.008,0.899,0.097,1.146,0.272c0.264,0.186,0.398,0.481,0.398,0.878v4.752l-0.025,0.023c-0.248,0.234-0.522,0.419-0.815,0.55
	c-0.294,0.133-0.651,0.2-1.06,0.2c-0.465,0-0.837-0.145-1.108-0.431c-0.27-0.286-0.408-0.693-0.408-1.212v-5.628l-3.789,0.32V88.436
	z M119.098,95.748v0.361h7.392v-0.361c-0.527-0.043-0.947-0.106-1.25-0.189c-0.329-0.09-0.581-0.235-0.747-0.432
	c-0.166-0.196-0.273-0.458-0.318-0.78c-0.043-0.31-0.065-0.714-0.065-1.201v-3.782l0.106,0.041c0.436,0.169,0.896,0.29,1.367,0.361
	c1.051,0.157,2.119,0.151,3.099-0.117c0.538-0.146,1.028-0.377,1.454-0.684c0.425-0.306,0.772-0.692,1.029-1.145
	c0.257-0.451,0.387-0.997,0.387-1.623c0-0.712-0.145-1.338-0.43-1.861c-0.286-0.523-0.672-0.958-1.145-1.293
	c-0.478-0.336-1.032-0.592-1.649-0.76c-0.62-0.169-1.269-0.254-1.931-0.254c-0.708,0-1.409,0.035-2.083,0.107
	c-0.676,0.071-1.36,0.107-2.035,0.107c-0.673,0-1.287-0.015-1.827-0.043c-0.508-0.026-0.959-0.053-1.354-0.08v0.36
	c0.456,0.043,0.833,0.106,1.122,0.189c0.313,0.089,0.56,0.23,0.734,0.419c0.173,0.189,0.291,0.444,0.351,0.757
	c0.058,0.304,0.087,0.705,0.087,1.194v8.107c0,0.489-0.022,0.893-0.065,1.201c-0.045,0.32-0.147,0.582-0.306,0.778
	c-0.159,0.198-0.403,0.344-0.726,0.434C119.999,95.641,119.596,95.705,119.098,95.748 M125.818,89.256
	c-0.278,0-0.569-0.037-0.866-0.11c-0.297-0.072-0.565-0.16-0.795-0.262l-0.047-0.02v-5.851l0.049-0.02
	c0.29-0.115,0.59-0.204,0.894-0.261c0.304-0.058,0.626-0.088,0.958-0.088c0.509,0,0.949,0.086,1.309,0.254
	c0.36,0.17,0.656,0.409,0.877,0.711c0.219,0.3,0.382,0.656,0.485,1.056c0.101,0.399,0.152,0.835,0.152,1.296
	c0,0.943-0.255,1.736-0.757,2.354C127.57,88.939,126.81,89.256,125.818,89.256 M138.763,95.748v0.36h7.307v-0.355
	c-0.427-0.012-0.852-0.119-1.264-0.318c-0.445-0.215-0.762-0.565-0.94-1.04l-4.625-12.554l-2.488,0.726l0.365,0.973l-0.013,0.028
	l-4.203,9.801c-0.144,0.345-0.285,0.653-0.421,0.916c-0.138,0.269-0.3,0.509-0.483,0.714c-0.184,0.207-0.417,0.376-0.69,0.501
	c-0.255,0.118-0.575,0.2-0.952,0.245v0.362l5.185,0.001v-0.366c-0.173-0.03-0.36-0.078-0.558-0.142
	c-0.224-0.072-0.438-0.165-0.636-0.274c-0.201-0.112-0.367-0.244-0.493-0.393c-0.133-0.157-0.201-0.332-0.201-0.523
	c0-0.295,0.042-0.543,0.124-0.738c0.077-0.181,0.152-0.375,0.224-0.575l1.112-3.075h4.378l0.747,2.176
	c0.057,0.14,0.124,0.315,0.203,0.523l0.237,0.622c0.079,0.21,0.144,0.419,0.195,0.62c0.052,0.208,0.078,0.376,0.078,0.512
	c0,0.401-0.195,0.706-0.579,0.905C140.019,95.564,139.478,95.688,138.763,95.748 M139.245,89.363h-3.889l1.924-5.175h0.152
	L139.245,89.363z M151.574,89.368l0.124,0.09c0.147,0.107,0.371,0.189,0.665,0.243c0.306,0.057,0.582,0.1,0.82,0.128l0.04,0.005
	l0.02,0.035c0.624,1.136,1.326,2.237,2.085,3.273c0.752,1.025,1.581,2.024,2.467,2.968l4.459-0.003v-0.359
	c-0.631-0.123-1.255-0.42-1.857-0.882c-0.616-0.473-1.201-0.907-1.738-1.53c-0.536-0.624-1.033-1.276-1.475-1.938
	c-0.443-0.666-0.819-1.247-1.116-1.729l-0.058-0.094l0.108-0.023c0.448-0.098,0.868-0.241,1.248-0.423
	c0.375-0.181,0.707-0.41,0.987-0.683c0.277-0.27,0.499-0.593,0.658-0.962c0.16-0.367,0.24-0.801,0.24-1.287
	c0-0.572-0.109-1.11-0.325-1.599c-0.216-0.487-0.534-0.922-0.946-1.292c-0.413-0.37-0.916-0.665-1.497-0.874
	c-0.582-0.211-1.248-0.318-1.979-0.318c-0.837,0-1.651,0.022-2.419,0.065c-0.771,0.042-1.552,0.064-2.321,0.064
	c-0.648,0-1.23-0.007-1.728-0.021c-0.478-0.014-0.973-0.034-1.475-0.061v0.318c0.5,0.045,0.904,0.119,1.202,0.223
	c0.321,0.112,0.565,0.277,0.724,0.488c0.157,0.211,0.259,0.475,0.304,0.787c0.043,0.302,0.065,0.674,0.065,1.104v8.15
	c0,0.488-0.022,0.888-0.065,1.191c-0.045,0.314-0.148,0.565-0.308,0.747c-0.16,0.184-0.404,0.318-0.726,0.4
	c-0.296,0.076-0.697,0.136-1.196,0.179v0.36h7.179v-0.361c-0.471-0.043-0.848-0.103-1.122-0.178c-0.3-0.082-0.533-0.217-0.692-0.4
	c-0.161-0.183-0.261-0.435-0.298-0.749c-0.036-0.302-0.054-0.701-0.054-1.189V89.368z M153.089,89.084
	c-0.51,0-1.004-0.111-1.47-0.329l-0.045-0.021v-5.745l0.052-0.019c0.291-0.101,0.578-0.167,0.854-0.197
	c0.273-0.028,0.558-0.043,0.845-0.043c0.451,0,0.866,0.082,1.232,0.243c0.366,0.161,0.685,0.387,0.948,0.672
	s0.467,0.626,0.606,1.013c0.138,0.386,0.208,0.803,0.208,1.238c0,1.034-0.301,1.832-0.894,2.374
	C154.834,88.81,154.048,89.084,153.089,89.084 M170.307,81.814c-1.129,0-2.18,0.179-3.125,0.531
	c-0.944,0.352-1.765,0.852-2.44,1.485c-0.675,0.633-1.211,1.407-1.591,2.301s-0.572,1.904-0.572,3.004
	c0,1.115,0.185,2.133,0.551,3.026c0.366,0.894,0.88,1.668,1.527,2.301s1.424,1.129,2.311,1.473c0.888,0.346,1.874,0.521,2.931,0.521
	c1.593,0,3.001-0.372,4.184-1.104c1.17-0.724,2.168-1.772,2.968-3.118l-0.407-0.424c-0.245,0.361-0.528,0.729-0.841,1.096
	c-0.339,0.396-0.733,0.758-1.172,1.074c-0.439,0.318-0.944,0.581-1.499,0.783c-0.556,0.202-1.182,0.304-1.86,0.304
	c-0.95,0-1.794-0.157-2.508-0.467c-0.716-0.31-1.32-0.751-1.798-1.308c-0.476-0.556-0.842-1.221-1.086-1.978
	c-0.245-0.754-0.369-1.588-0.369-2.479c0-0.689,0.076-1.409,0.226-2.139c0.152-0.735,0.411-1.41,0.771-2.009
	c0.363-0.601,0.847-1.103,1.44-1.493c0.596-0.393,1.339-0.593,2.209-0.593c0.666,0,1.295,0.144,1.868,0.427
	c0.569,0.281,1.085,0.662,1.534,1.131c0.447,0.469,0.826,1.017,1.128,1.628c0.293,0.592,0.494,1.215,0.598,1.855h0.381
	c-0.066-0.566-0.184-4.777-0.183-5.023c-0.059-0.01-0.334-0.045-0.859-0.153c-0.386-0.078-0.837-0.168-1.351-0.268
	c-0.5-0.099-1.026-0.189-1.562-0.267C171.172,81.853,170.7,81.814,170.307,81.814"/>
<path class="st0" d="M91.343,0.126C72.098-1.588,56.042,14.468,57.758,33.713c1.315,14.753,13.196,26.633,27.948,27.948
	c19.246,1.715,35.302-14.342,33.585-33.588C117.976,13.32,106.096,1.441,91.343,0.126 M116.506,22.192l-0.002-0.007L116.506,22.192z
	 M60.561,22.14l-0.022,0.067C60.546,22.185,60.554,22.163,60.561,22.14 M80.588,58.548c-4.76-1.449-6.333-5.461-8.957-4.38
	c-0.009-0.007-0.011-0.009-0.011-0.009c0.205-2.799-3.984-3.089-6.832-7.022c-3.011-4.385-4.834-9.643-5.016-15.309
	c-0.064-4.944,3.244-7.669,1.388-9.823l0.002-0.006c2.723-0.641,1.729-4.669,4.517-8.574c3.285-4.287,7.744-7.628,12.896-9.533
	c4.772-1.711,8.458,0.694,9.95-1.775c1.492,2.469,5.177,0.064,9.949,1.775c5.156,1.905,9.617,5.25,12.903,9.541
	c2.78,3.902,1.79,7.925,4.511,8.566l0.001,0.004c-1.851,2.154,1.444,4.874,1.389,9.806c-0.179,5.683-2.009,10.955-5.032,15.35
	c-2.848,3.911-7.02,4.206-6.806,6.993c-0.01,0.007-0.012,0.009-0.012,0.009c-2.632-1.074-4.206,2.937-8.964,4.387
	c-2.524,0.725-5.185,1.122-7.939,1.122C85.772,59.67,83.111,59.273,80.588,58.548"/>
<path class="st0" d="M88.525,5.284c0.699,0.691,1.639,0.801,2.571,0.801c0.38,0,0.781-0.02,1.206-0.041
	c0.479-0.023,0.973-0.048,1.499-0.048c0.878,0,2.215,0.061,3.682,0.587c4.598,1.699,8.615,4.67,11.609,8.578
	c1.099,1.543,1.522,3.093,1.896,4.46c0.402,1.474,0.758,2.775,1.895,3.361c-0.576,1.142-0.098,2.403,0.443,3.831
	c0.521,1.374,1.111,2.932,1.089,4.908c-0.157,4.96-1.723,9.739-4.523,13.81c-1.137,1.561-2.499,2.456-3.701,3.245
	c-1.279,0.839-2.407,1.58-2.611,2.844c-0.122-0.018-0.243-0.027-0.364-0.027c-1.111,0-2.053,0.755-3.143,1.63
	c-1.16,0.932-2.476,1.987-4.4,2.574c-2.333,0.67-4.738,1.01-7.148,1.01c-2.41,0-4.814-0.339-7.139-1.008
	c-1.933-0.588-3.249-1.644-4.409-2.576c-1.09-0.875-2.032-1.63-3.143-1.63c-0.121,0-0.242,0.009-0.364,0.027
	c-0.204-1.264-1.332-2.005-2.611-2.844c-1.207-0.793-2.576-1.691-3.708-3.254c-2.795-4.072-4.357-8.839-4.516-13.775
	c-0.025-1.993,0.567-3.556,1.089-4.934c0.541-1.428,1.019-2.689,0.443-3.831c1.138-0.585,1.493-1.887,1.896-3.361
	c0.374-1.369,0.797-2.922,1.891-4.454c3.002-3.917,7.018-6.885,11.607-8.582c1.472-0.528,2.81-0.589,3.688-0.589
	c0.526,0,1.02,0.025,1.499,0.048c0.425,0.021,0.826,0.041,1.206,0.041C86.886,6.085,87.826,5.975,88.525,5.284 M88.525,3.995
	c-0.562,0.931-1.458,1.12-2.62,1.12c-0.8,0-1.726-0.09-2.756-0.09c-1.182,0-2.502,0.119-3.925,0.629
	c-4.816,1.781-8.983,4.904-12.054,8.911c-2.606,3.65-1.676,7.415-4.222,8.015l-0.002,0.005c1.735,2.013-1.357,4.56-1.297,9.182
	c0.17,5.296,1.874,10.211,4.688,14.31c2.662,3.676,6.578,3.947,6.377,6.557c0.009,0.007,0.011,0.008,0.02,0.015
	c0.285-0.118,0.557-0.171,0.822-0.171c2.012,0,3.618,3.068,7.55,4.265c2.358,0.678,4.845,1.049,7.419,1.049
	c2.574,0,5.062-0.371,7.42-1.049c3.931-1.198,5.537-4.265,7.549-4.265c0.265,0,0.537,0.053,0.822,0.171l0.02-0.015
	c-0.2-2.605,3.7-2.881,6.362-6.536c2.826-4.108,4.536-9.037,4.703-14.349c0.052-4.61-3.029-7.153-1.297-9.163
	c-0.001-0.003-0.001-0.004-0.001-0.004c-2.544-0.602-1.619-4.362-4.217-8.01c-3.072-4.01-7.242-7.137-12.062-8.918
	c-1.422-0.51-2.741-0.629-3.923-0.629c-1.03,0-1.956,0.09-2.756,0.09C89.983,5.115,89.087,4.926,88.525,3.995"/>
<polygon class="st0" points="81.181,22.358 78.947,22.358 78.947,24.452 76.448,24.452 76.448,20.004 84.115,20.004 84.115,28.072 
	86.349,28.072 86.349,17.771 74.214,17.771 74.214,26.686 81.181,26.686 "/>
<polygon class="st0" points="95.87,39.428 98.104,39.428 98.104,37.334 100.603,37.334 100.603,41.782 92.936,41.782 92.936,33.714 
	90.702,33.714 90.702,44.015 102.837,44.015 102.837,35.1 95.87,35.1 "/>
<path class="st0" d="M97.821,17.771c-3.926,0-7.119,3.194-7.119,7.119v3.182h2.233V24.89c0-2.694,2.192-4.885,4.886-4.885
	c2.694,0,4.886,2.191,4.886,4.885c0,2.695-2.192,4.886-4.886,4.886h-3.139h-1.747h-2.233h-4.354h-2.233h-1.279h-3.607
	c-3.926,0-7.12,3.194-7.12,7.12c0,3.925,3.194,7.119,7.12,7.119c3.926,0,7.119-3.194,7.119-7.119v-3.182h-2.233v3.182
	c0,2.694-2.192,4.885-4.886,4.885s-4.886-2.191-4.886-4.885s2.192-4.886,4.886-4.886h3.147h1.739h2.233h4.354h2.233h1.287h3.599
	c3.926,0,7.119-3.194,7.119-7.12C104.94,20.965,101.747,17.771,97.821,17.771"/>
</svg>
